<mxfile host="app.diagrams.net" modified="2024-02-21T14:32:53.950Z" agent="Mozilla/5.0 (Windows NT 10.0; Win64; x64) AppleWebKit/537.36 (KHTML, like Gecko) Chrome/121.0.0.0 Safari/537.36" etag="pKtpiIh_ooPmzIxBbN5d" version="23.1.5" type="device">
  <diagram name="Page-1" id="F8BRtN11SBBvxgG1piG-">
    <mxGraphModel dx="723" dy="474" grid="1" gridSize="10" guides="1" tooltips="1" connect="1" arrows="1" fold="1" page="1" pageScale="1" pageWidth="3300" pageHeight="4681" math="0" shadow="0">
      <root>
        <mxCell id="0" />
        <mxCell id="1" parent="0" />
        <mxCell id="lARUWAE4bLwUXd6dS_6X-12" value="Captured photos of classroom" style="edgeStyle=orthogonalEdgeStyle;rounded=0;orthogonalLoop=1;jettySize=auto;html=1;exitX=0.5;exitY=1;exitDx=0;exitDy=0;entryX=0.5;entryY=0;entryDx=0;entryDy=0;" edge="1" parent="1" source="lARUWAE4bLwUXd6dS_6X-2" target="lARUWAE4bLwUXd6dS_6X-6">
          <mxGeometry relative="1" as="geometry" />
        </mxCell>
        <mxCell id="lARUWAE4bLwUXd6dS_6X-2" value="Camera" style="rounded=0;whiteSpace=wrap;html=1;" vertex="1" parent="1">
          <mxGeometry x="280" y="90" width="120" height="40" as="geometry" />
        </mxCell>
        <mxCell id="lARUWAE4bLwUXd6dS_6X-13" value="Send photos to model" style="edgeStyle=orthogonalEdgeStyle;rounded=0;orthogonalLoop=1;jettySize=auto;html=1;exitX=0;exitY=0.5;exitDx=0;exitDy=0;entryX=0;entryY=0.5;entryDx=0;entryDy=0;" edge="1" parent="1" source="lARUWAE4bLwUXd6dS_6X-6" target="lARUWAE4bLwUXd6dS_6X-7">
          <mxGeometry relative="1" as="geometry" />
        </mxCell>
        <mxCell id="lARUWAE4bLwUXd6dS_6X-14" value="Send info to database" style="edgeStyle=orthogonalEdgeStyle;rounded=0;orthogonalLoop=1;jettySize=auto;html=1;exitX=1;exitY=0.5;exitDx=0;exitDy=0;" edge="1" parent="1" source="lARUWAE4bLwUXd6dS_6X-6" target="lARUWAE4bLwUXd6dS_6X-8">
          <mxGeometry relative="1" as="geometry" />
        </mxCell>
        <mxCell id="lARUWAE4bLwUXd6dS_6X-6" value="System" style="rounded=0;whiteSpace=wrap;html=1;" vertex="1" parent="1">
          <mxGeometry x="280" y="200" width="120" height="40" as="geometry" />
        </mxCell>
        <mxCell id="lARUWAE4bLwUXd6dS_6X-11" value="Send prediction&amp;nbsp;" style="edgeStyle=orthogonalEdgeStyle;rounded=0;orthogonalLoop=1;jettySize=auto;html=1;entryX=0.5;entryY=1;entryDx=0;entryDy=0;" edge="1" parent="1" source="lARUWAE4bLwUXd6dS_6X-7" target="lARUWAE4bLwUXd6dS_6X-6">
          <mxGeometry relative="1" as="geometry" />
        </mxCell>
        <mxCell id="lARUWAE4bLwUXd6dS_6X-7" value="Model" style="rounded=0;whiteSpace=wrap;html=1;" vertex="1" parent="1">
          <mxGeometry x="240" y="360" width="120" height="40" as="geometry" />
        </mxCell>
        <mxCell id="lARUWAE4bLwUXd6dS_6X-15" value="Send Report" style="edgeStyle=orthogonalEdgeStyle;rounded=0;orthogonalLoop=1;jettySize=auto;html=1;exitX=0;exitY=0.5;exitDx=0;exitDy=0;entryX=0.75;entryY=1;entryDx=0;entryDy=0;" edge="1" parent="1" source="lARUWAE4bLwUXd6dS_6X-8" target="lARUWAE4bLwUXd6dS_6X-6">
          <mxGeometry x="-0.3333" relative="1" as="geometry">
            <mxPoint as="offset" />
          </mxGeometry>
        </mxCell>
        <mxCell id="lARUWAE4bLwUXd6dS_6X-8" value="Database" style="rounded=0;whiteSpace=wrap;html=1;" vertex="1" parent="1">
          <mxGeometry x="480" y="320" width="120" height="40" as="geometry" />
        </mxCell>
      </root>
    </mxGraphModel>
  </diagram>
</mxfile>
